<svg xmlns="http://www.w3.org/2000/svg" xmlns:xlink="http://www.w3.org/1999/xlink" viewBox="0 0 51.487 51.487"><defs><style>.a{fill:rgba(78,78,78,0.75);stroke:#4e4e4e;stroke-width:1.5px;}.b{clip-path:url(#a);}.c{fill:#e89b21;}.d{fill:#e2e2e2;}.e{fill:#fff;}.f{fill:#f8b747;}.g{fill:#da9a36;}.h{fill:#bcbbbc;}.i{fill:#a8a8a8;}.j{fill:#c2c1c1;}.k{fill:#c22222;}.l{fill:#f09c9d;}.m{fill:none;stroke:#1d1e1c;stroke-miterlimit:10;}.n{fill:#1d1e1c;}.o{fill:#373736;}</style><clipPath id="a"><path class="a" d="M25.743,0A25.743,25.743,0,1,1,0,25.743,25.743,25.743,0,0,1,25.743,0Z"/></clipPath></defs><g transform="translate(-150 -96)"><g class="b" transform="translate(150 96)"><g transform="translate(-34.554 0)"><g transform="translate(0 25.219)"><path class="c" d="M13.676,66.95S7.513,65.109,2.75,69.671c-5.283,5.083-1.441,11.005,0,11.766S13.676,66.95,13.676,66.95Z" transform="translate(-0.049 -65.149)"/><path class="d" d="M48.1,129.587s-4.562,6.963-4.762,9.325c0,0,4.362,1.081,4.082,3.482s-9.645,1.681-9.645,1.681-4.282-2.161-4.8-4.642c-.48-2.481,7.364-10.045,9.125-10.325A27.551,27.551,0,0,1,48.1,129.587Z" transform="translate(-19.781 -102.614)"/><path class="d" d="M145.247,129s-2.4,6.643-2.2,10.205c0,0,3.962-.48,4.882,2.281.88,2.8-3.162,4.282-8.564,3.882C134,144.968,132,130.161,132,130.161Z" transform="translate(-79.193 -102.587)"/><g transform="translate(0.862 0.04)"><path class="e" d="M45.142,63.1s-12.206,2-20.49,1.281c-8.244-.68-13.126,1-17.289,3.762S1.6,82.269,2.4,86.271,7.964,99.278,7.964,99.278s-1,3.962-.48,5.363,5.563,2.4,8.924,2.2,5.083-2,5.283-2.881S20.61,100,17.008,99.478A9.229,9.229,0,0,1,19.29,95.4a29.906,29.906,0,0,0,3.682-3.962S35.978,95.6,45.142,93.915c0,0,6.443,12.686,7.964,12.926,1.481.28,10.125-.44,10.725-1.121s-.08-5.763-4.882-5.563c0,0-1.681-4.562-2-5.883,0,0,11.406.8,18.329-6.363S77.438,69.943,77.118,70.1C76.838,70.344,45.142,63.1,45.142,63.1Z" transform="translate(-2.202 -63.1)"/></g><g transform="translate(0.862)"><path class="f" d="M9.6,92.695c1.321-2.161-1.721-5.243,0-7.764s5.483.32,8.284,1.961,10,.48,13.247.12c3.242-.32,9.845,1.2,12.966,3.042s4.8.92,4.8-.2-5.563-8.564-4.962-9.125,7.284.4,7.484,0-1.721-3.642-2.6-5.283c-1.041-2.041.04-8.284.68-11.446-2.641-.6-4.362-1-4.362-1s-12.206,2-20.49,1.281c-8.244-.68-13.126,1-17.289,3.762S1.6,82.209,2.4,86.211a51.461,51.461,0,0,0,3.722,9.365A9.558,9.558,0,0,0,9.6,92.695Z" transform="translate(-2.202 -63)"/></g><g transform="translate(41.681 27.093)"><path class="g" d="M106.321,134.462l-.12-.12a3.267,3.267,0,0,1-.32-.36,6.793,6.793,0,0,1-.4-.56c-.12-.2-.28-.44-.44-.68l-.36-.72c-.12-.24-.2-.44-.28-.64s-.12-.36-.16-.48a.7.7,0,0,1-.04-.2,1.185,1.185,0,0,1,.12.16,1.726,1.726,0,0,1,.28.4c.12.16.24.36.4.56.12.2.28.44.4.68s.24.48.36.68c.12.24.2.44.28.64s.12.36.16.48C106.321,134.382,106.321,134.462,106.321,134.462Z" transform="translate(-104.2 -130.7)"/></g><g transform="translate(54.007 27.133)"><path class="h" d="M136.641,134.922a.69.69,0,0,0-.12-.16c-.04-.12-.16-.24-.24-.44s-.2-.4-.32-.64c-.08-.24-.2-.48-.32-.76a4.267,4.267,0,0,0-.28-.76c-.08-.24-.12-.48-.2-.68a4.152,4.152,0,0,0-.12-.48.7.7,0,0,1-.04-.2,1.182,1.182,0,0,1,.12.16,2.1,2.1,0,0,1,.28.44c.08.2.24.4.32.64.12.24.2.48.32.76.08.28.16.52.24.76a5.463,5.463,0,0,1,.16.68,3.324,3.324,0,0,1,.08.52A.69.69,0,0,1,136.641,134.922Z" transform="translate(-135 -130.8)"/></g><g transform="translate(21.631 24.212)"><path class="h" d="M54.1,127.662a1.68,1.68,0,0,0,.08-.2c.08-.12.12-.32.24-.52s.24-.44.4-.68.32-.52.48-.76.36-.52.52-.76.32-.44.48-.64c.12-.2.28-.32.32-.44a1.184,1.184,0,0,1,.12-.16.7.7,0,0,1-.04.2,2.219,2.219,0,0,1-.2.52,4.019,4.019,0,0,1-.36.72c-.16.24-.32.52-.48.8a8.571,8.571,0,0,0-.52.76,4.009,4.009,0,0,1-.52.6l-.4.4A.746.746,0,0,1,54.1,127.662Z" transform="translate(-54.1 -123.5)"/></g><g transform="translate(38.909 3.242)"><path class="g" d="M97.484,71.1v.76a17.835,17.835,0,0,0,.08,1.921,19.094,19.094,0,0,0,.48,2.681,21.5,21.5,0,0,0,1,2.961c.4,1,.88,1.961,1.321,2.841.48.88.92,1.721,1.361,2.4.4.68.76,1.281,1,1.681s.36.64.36.64-.16-.2-.44-.6-.68-.92-1.161-1.6c-.44-.68-1-1.481-1.481-2.361a26.813,26.813,0,0,1-1.4-2.841,22.244,22.244,0,0,1-.96-3.042,14.96,14.96,0,0,1-.36-2.761,13.617,13.617,0,0,1,.08-1.961,3.732,3.732,0,0,0,.08-.56A.234.234,0,0,1,97.484,71.1Z" transform="translate(-97.273 -71.1)"/></g><g transform="translate(41.721 4.522)"><path class="g" d="M104.3,74.3s.08.2.24.52.36.8.64,1.361.64,1.2,1,1.881q.6,1.021,1.321,2.041t1.441,1.921c.52.6.96,1.161,1.4,1.6s.8.84,1.041,1.081l.4.4s-.16-.12-.48-.32a14.317,14.317,0,0,1-1.161-.96,13.6,13.6,0,0,1-1.521-1.521c-.52-.6-1.04-1.241-1.521-1.921a22.955,22.955,0,0,1-1.281-2.121,20.041,20.041,0,0,1-.88-1.961,9.948,9.948,0,0,1-.48-1.441A5.229,5.229,0,0,1,104.3,74.3Z" transform="translate(-104.3 -74.3)"/></g><g transform="translate(13.147 40.02)"><path class="i" d="M32.9,163.04a.7.7,0,0,0,.2-.04,1.677,1.677,0,0,1,.56.08,2.02,2.02,0,0,1,.68.4,2.563,2.563,0,0,1,.52.76,3.632,3.632,0,0,1,.2.84,4.816,4.816,0,0,1,0,.76,1.776,1.776,0,0,1-.08.52.7.7,0,0,0-.04.2.7.7,0,0,0-.04-.2,5.223,5.223,0,0,1-.12-.52,5.46,5.46,0,0,0-.16-.68,2.79,2.79,0,0,0-.24-.76,1.743,1.743,0,0,0-.4-.64,1.6,1.6,0,0,0-.48-.44,1.631,1.631,0,0,0-.44-.24A.4.4,0,0,0,32.9,163.04Z" transform="translate(-32.9 -163)"/></g><g transform="translate(16.109 39.58)"><path class="i" d="M40.3,161.9h.4c.08,0,.2.04.28.04a2.4,2.4,0,0,1,.64.32,2.693,2.693,0,0,1,.56.6,3.087,3.087,0,0,1,.32.76,1.493,1.493,0,0,1,.04.72c0,.12-.04.2-.04.28-.04.08-.04.16-.08.2a.438.438,0,0,1-.08.16v-.4a.508.508,0,0,0-.04-.24,1.677,1.677,0,0,0-.16-.6,4.779,4.779,0,0,0-.32-.64,3.022,3.022,0,0,0-.44-.56,2.123,2.123,0,0,0-.48-.4l-.24-.12c-.08-.04-.12-.08-.2-.08A.234.234,0,0,1,40.3,161.9Z" transform="translate(-40.3 -161.9)"/></g><g transform="translate(22.071 38.579)"><path class="i" d="M55.2,159.4a.31.31,0,0,1,.12.04c.08.04.2.08.36.16a1.625,1.625,0,0,1,.4.36,2.269,2.269,0,0,1,.32.52,3.334,3.334,0,0,1,.16.6,1.061,1.061,0,0,1-.04.52,1.862,1.862,0,0,1-.12.36.5.5,0,0,1-.08.12v-.16c0-.08-.04-.2-.04-.36s-.08-.28-.08-.48a2.256,2.256,0,0,0-.16-.48,2.69,2.69,0,0,0-.24-.48c-.08-.12-.16-.28-.24-.4s-.16-.2-.2-.28A.234.234,0,0,1,55.2,159.4Z" transform="translate(-55.2 -159.4)"/></g><g transform="translate(24.266 38.402)"><path class="i" d="M60.731,159.135h0c-.08-.04-.04-.08,0-.12a.176.176,0,0,1,.2-.04,1.334,1.334,0,0,1,.24.12,1.627,1.627,0,0,1,.4.36,2.269,2.269,0,0,1,.32.52,3.334,3.334,0,0,1,.16.6,2.233,2.233,0,0,1,0,.52.76.76,0,0,1-.12.36.5.5,0,0,1-.08.12.31.31,0,0,0-.04-.12,2.031,2.031,0,0,0-.08-.36c-.04-.12-.08-.28-.12-.44a2.448,2.448,0,0,0-.2-.48l-.24-.48a3.522,3.522,0,0,0-.24-.4c-.04-.04-.12-.12-.08-.12a.147.147,0,0,0-.12-.04c0-.04-.04-.04,0,0Z" transform="translate(-60.685 -158.959)"/></g><g transform="translate(56.849 39.97)"><path class="i" d="M142.1,162.925a.486.486,0,0,1,.2-.04,1.228,1.228,0,0,1,.52.04,2.4,2.4,0,0,1,.64.32,2.035,2.035,0,0,1,.52.64,5.831,5.831,0,0,1,.28.76c.04.24.04.48.08.68,0,.2-.04.36-.04.48a.485.485,0,0,1-.04.2l-.08-.16a3.045,3.045,0,0,0-.16-.44,5.694,5.694,0,0,0-.2-.64,4.877,4.877,0,0,0-.28-.68,2.839,2.839,0,0,0-.4-.56,2.122,2.122,0,0,0-.48-.4l-.4-.2A.193.193,0,0,1,142.1,162.925Z" transform="translate(-142.1 -162.875)"/></g><g transform="translate(59.57 39.54)"><path class="i" d="M150.381,165.122v-.6a3.088,3.088,0,0,0-.08-.6,2.092,2.092,0,0,0-.24-.64,4.374,4.374,0,0,0-.32-.6,2.322,2.322,0,0,0-.4-.48,1.749,1.749,0,0,0-.32-.28l-.12-.12a.4.4,0,0,1,.16.04,3.039,3.039,0,0,1,.44.16,2.413,2.413,0,0,1,.56.44,2.85,2.85,0,0,1,.44.68,5.327,5.327,0,0,1,.2.76,1.894,1.894,0,0,1-.04.68,1.733,1.733,0,0,1-.16.44A.3.3,0,0,0,150.381,165.122Z" transform="translate(-148.9 -161.8)"/></g><g transform="translate(63.292 39.059)"><path class="i" d="M158.2,160.6a.4.4,0,0,1,.16.04,3.043,3.043,0,0,1,.44.16,2.412,2.412,0,0,1,.56.44,3.962,3.962,0,0,1,.44.68,4.683,4.683,0,0,1,.2.8,1.285,1.285,0,0,1-.08.68.9.9,0,0,1-.2.44.248.248,0,0,0-.08.16v-.6a3.093,3.093,0,0,0-.08-.6,3.935,3.935,0,0,0-.2-.64,2.857,2.857,0,0,0-.32-.6,2.322,2.322,0,0,0-.4-.48l-.32-.32A1.182,1.182,0,0,0,158.2,160.6Z" transform="translate(-158.2 -160.6)"/></g><g transform="translate(65.809 38.859)"><path class="i" d="M164.493,160.26s-.04-.12.12-.16a.507.507,0,0,1,.24.04,1.062,1.062,0,0,1,.24.2,2.171,2.171,0,0,1,.36.6,4.22,4.22,0,0,1,.2.76,5.1,5.1,0,0,1-.04.8,2.379,2.379,0,0,1-.24.64,1.724,1.724,0,0,1-.28.4l-.12.12a.4.4,0,0,1,.04-.16c.04-.12.08-.28.12-.44a2.718,2.718,0,0,0,.08-.6,1.941,1.941,0,0,0,0-.68,1.87,1.87,0,0,0-.12-.68c-.08-.2-.12-.4-.2-.56-.04-.08-.04-.16-.12-.2-.04-.04-.08-.08-.12-.08C164.493,160.14,164.493,160.26,164.493,160.26Z" transform="translate(-164.489 -160.1)"/></g><g transform="translate(64.933 9.645)"><path class="j" d="M174.226,87.1s.16.4.36,1.121a16.954,16.954,0,0,1,.32,7.324,14.979,14.979,0,0,1-1.681,4.682,13.618,13.618,0,0,1-3.242,3.8,16.5,16.5,0,0,1-3.682,2.281,15.6,15.6,0,0,1-2.881,1c-.72.16-1.121.24-1.121.24a10.467,10.467,0,0,0,1.121-.32,23.7,23.7,0,0,0,2.8-1.161,17.107,17.107,0,0,0,3.562-2.361,13.321,13.321,0,0,0,3.081-3.722,14.126,14.126,0,0,0,1.681-4.522,17.856,17.856,0,0,0,.32-4.242,21.225,21.225,0,0,0-.36-3C174.346,87.5,174.226,87.1,174.226,87.1Z" transform="translate(-162.3 -87.1)"/></g><g transform="translate(4.783 32.536)"><path class="j" d="M12,144.3s.2.32.52.92.8,1.441,1.321,2.441a1.95,1.95,0,0,1,.12.28c-.04.08-.04.16-.08.24,0,.08-.04.12-.04.2-.04.12-.08.28-.12.4a5.679,5.679,0,0,0-.2.88c-.12.6-.24,1.241-.32,1.921a3,3,0,0,0,.04,1.041,1.434,1.434,0,0,0,.16.44,2.91,2.91,0,0,0,.36.32,7.093,7.093,0,0,0,1.961,1.041,22.426,22.426,0,0,0,2.161.68c.72.16,1.481.32,2.161.4a9.873,9.873,0,0,0,3.842-.32,8,8,0,0,0,2.481-1.161c.12-.08.24-.2.36-.28a.679.679,0,0,0,.24-.24l.2-.2a.889.889,0,0,1-.16.2.679.679,0,0,1-.24.24l-.32.32a7.384,7.384,0,0,1-2.481,1.361,10.275,10.275,0,0,1-3.962.48,15.557,15.557,0,0,1-2.241-.4,14.341,14.341,0,0,1-2.241-.64,7.655,7.655,0,0,1-2.081-1.161,1.522,1.522,0,0,1-.44-.44,1.886,1.886,0,0,1-.24-.6,3.76,3.76,0,0,1,0-1.161,14.23,14.23,0,0,1,.36-1.961c.08-.32.16-.6.24-.88.04-.16.08-.28.12-.4.04-.08.04-.12.08-.2l.04-.16c-.04-.08-.04-.12-.08-.16-.52-1.04-.88-1.921-1.161-2.521C12.16,144.66,12,144.3,12,144.3Z" transform="translate(-12 -144.3)"/></g><g transform="translate(26.634 29.695)"><path class="j" d="M66.6,137.2s.68.16,1.841.36,2.841.48,4.882.72a41.89,41.89,0,0,0,6.923.32l.88-.04a6.546,6.546,0,0,1,.88-.08c.28-.04.6-.08.88-.12l1.041-.2.56,1.161.48,1,1,1.961a70.49,70.49,0,0,0,3.962,6.883,10.161,10.161,0,0,0,1.161,1.441,2.8,2.8,0,0,0,.64.56,4.153,4.153,0,0,0,.4.16,1.422,1.422,0,0,0,.4.08,14.62,14.62,0,0,0,3.242,0,44.709,44.709,0,0,0,4.842-.76c1.161-.24,1.841-.4,1.841-.4s-.64.2-1.8.48a39.118,39.118,0,0,1-4.842.92,12.946,12.946,0,0,1-3.322.08c-.16-.04-.32-.04-.44-.08a1.435,1.435,0,0,1-.44-.16,5.585,5.585,0,0,1-.76-.6,10.783,10.783,0,0,1-1.2-1.481,68.481,68.481,0,0,1-4.082-6.923l-1-1.961-.88-1.841-.72.12a6.649,6.649,0,0,1-.88.12,6.549,6.549,0,0,1-.88.08l-.88.04a40.752,40.752,0,0,1-6.963-.48c-2.041-.28-3.682-.64-4.842-.88Z" transform="translate(-66.6 -137.2)"/></g><g transform="translate(56.048 16.088)"><path class="g" d="M140.1,106.4s.2,0,.56.04a3.448,3.448,0,0,0,.68.04h.84a20.553,20.553,0,0,0,2.121-.12,17.926,17.926,0,0,0,2.4-.44,14.325,14.325,0,0,0,2.321-.76c.72-.32,1.4-.6,1.921-.88.28-.16.52-.28.76-.4a3.409,3.409,0,0,0,.56-.36c.32-.2.48-.32.48-.32a4.719,4.719,0,0,0-.44.4,2.931,2.931,0,0,1-.52.4,5.614,5.614,0,0,1-.72.48,12.18,12.18,0,0,1-1.921,1.04,20.494,20.494,0,0,1-2.361.84,18.786,18.786,0,0,1-2.481.4,20.127,20.127,0,0,1-2.2,0,3.122,3.122,0,0,1-.88-.12c-.24-.04-.48-.08-.64-.12C140.3,106.442,140.1,106.4,140.1,106.4Z" transform="translate(-140.1 -103.2)"/></g><g transform="translate(21.391 19.65)"><path class="g" d="M53.5,120.9a3.7,3.7,0,0,0,.2-.36c.16-.24.32-.56.6-.92.24-.36.56-.84.84-1.281a4.617,4.617,0,0,0,.72-1.561,6.217,6.217,0,0,0,.2-1.681,8.247,8.247,0,0,0-.2-1.521c-.08-.44-.16-.84-.2-1.081a2.589,2.589,0,0,0-.08-.4,3.364,3.364,0,0,1,.16.4c.08.24.24.6.4,1.041a7.639,7.639,0,0,1,.32,1.561,4.8,4.8,0,0,1-.16,1.841,7.038,7.038,0,0,1-.84,1.641,11.232,11.232,0,0,1-1,1.241c-.28.36-.56.64-.72.84Z" transform="translate(-53.5 -112.1)"/></g><g transform="translate(54.167 27.093)"><path class="g" d="M136.921,134.942a1.186,1.186,0,0,1-.12-.16c-.08-.12-.16-.24-.28-.44-.08-.2-.24-.4-.32-.64-.12-.24-.2-.52-.32-.76-.08-.28-.16-.52-.24-.8a5.97,5.97,0,0,1-.16-.72c-.04-.2-.04-.4-.08-.52v-.2l.08.16c.04.12.16.28.24.44.08.2.2.4.28.64a6.16,6.16,0,0,0,.32.76,4.266,4.266,0,0,0,.28.76c.08.24.12.48.2.68a4.135,4.135,0,0,1,.12.48Z" transform="translate(-135.4 -130.7)"/></g></g><g transform="translate(39.314)"><path class="f" d="M163.9,9.235s7.764-9.525,13.607-9.245c0,0,4.162,4.562,0,18.889Z" transform="translate(-137.641 0.015)"/><path class="f" d="M113.018,13.164S106.455,4.8,99.211,4.4a20.146,20.146,0,0,0,3.282,18.369Z" transform="translate(-98.285 -2.633)"/><path class="f" d="M119.839,19.786c-6.043.44-11.045,2.481-15.087,7.043s-6.283,10.245-5.763,12.126c.48,1.881,4.762,2.8,4.762,2.8a1.4,1.4,0,0,0-.48,2.281c1.081,1.6,8.444,6.763,16.608,8.564s21.651-9.525,22.171-10.925c.48-1.4-1.8-1.6-1.8-1.6s3.682-1.2,3.562-2.081c-.08-.88-3.882-10.245-10.325-14.207S123.681,19.506,119.839,19.786Z" transform="translate(-98.662 -11.816)"/><g transform="translate(0.326 7.89)"><path class="e" d="M136.278,37.749c-.52-.08-6.363-3.162-6.883-3.041s-3.042,2.041-4.122,1.521c-1.04-.52-4.442-5.523-4.442-5.523,1.921-3.842.72-9.125.2-11.005-.36,0-.72.04-1.081.04-.12,0-.24.04-.36.04a16.235,16.235,0,0,0-.68,10.885s-3.041,5-3.562,5.523-2.241-.64-3.041-.44-4.442,3.122-4.962,3.322c-.48.2-5.763-1.721-8.244-.2v.08c.48,1.881,4.762,2.8,4.762,2.8a1.4,1.4,0,0,0-.48,2.281c1.081,1.6,8.444,6.763,16.608,8.564s21.651-9.525,22.171-10.925c.48-1.4-1.8-1.6-1.8-1.6s3.682-1.2,3.562-2.081a7.928,7.928,0,0,0-.48-1.4C140.921,35.868,136.759,37.829,136.278,37.749Z" transform="translate(-99.1 -19.7)"/></g><path class="e" d="M171.8,14.463s4.162-6.443,9.325-6.963c0,0,2.4,5.563,0,13.327C181.165,20.787,175.8,15.824,171.8,14.463Z" transform="translate(-142.379 -4.492)"/><path class="e" d="M112.66,19.263s-5.283-6.563-9.044-6.563c0,0-2.4,5.163,2.481,12.406A18.481,18.481,0,0,1,112.66,19.263Z" transform="translate(-101.128 -7.611)"/><path class="k" d="M136.8,72.1s2.321,6.683,6.243,6.963c3.962.28,5.923-6.963,5.923-6.963s-1.2,2.641-2.921,2.841a4.624,4.624,0,0,1-2.641-.32,10.75,10.75,0,0,1-3.482.56C138.641,75.021,136.8,72.1,136.8,72.1Z" transform="translate(-121.386 -43.24)"/><path class="l" d="M144.313,78.96s-1,2.921-.4,4.442a4.151,4.151,0,0,0,4.322,2.6c2.321-.08,3.242-2.921,3.242-3.842a7.127,7.127,0,0,0-1.041-3.442,7.362,7.362,0,0,1-2.881-.32A7.484,7.484,0,0,1,144.313,78.96Z" transform="translate(-125.537 -47.018)"/><path class="m" d="M152.769,83.5a8.336,8.336,0,0,1-.04-5" transform="translate(-130.712 -47.078)"/><path class="n" d="M146.628,65.63c.68-1.041,3.722-1.041,4.922,0s-1.441,2.681-2.481,2.441C147.669,67.751,146.068,66.551,146.628,65.63Z" transform="translate(-127.212 -38.891)"/><ellipse class="n" cx="1.361" cy="1.401" rx="1.361" ry="1.401" transform="translate(14.733 18.895)"/><ellipse class="n" cx="1.361" cy="1.401" rx="1.361" ry="1.401" transform="translate(26.859 18.895)"/><g transform="translate(11.532 25.379)"><path class="o" d="M127.1,64.12a1.279,1.279,0,0,0,.28-.04,5.97,5.97,0,0,0,.84-.2,5.357,5.357,0,0,0,.92-.36c.08.12.16.28.28.44.08.12.16.28.28.44.2.32.44.68.68,1.041a18.659,18.659,0,0,0,2.6,3.282,4.493,4.493,0,0,0,.88.64.569.569,0,0,0,.24.08c.08,0,.12.04.24.04.2.04.36.04.56.08a3.974,3.974,0,0,0,2.161-.44c.04-.04.08-.04.12-.08a1.218,1.218,0,0,0,.28-.2,6.52,6.52,0,0,0,.72.16c.2.04.36.08.56.12a9.91,9.91,0,0,0,1.081.12,3.441,3.441,0,0,0,.96-.08c.08,0,.08-.04.12-.08l.16-.16a3.6,3.6,0,0,0,.36-.4c.92-1.2,1.761-2.441,2.441-3.482.2-.32.4-.6.56-.88.08-.16.2-.28.24-.4a1.4,1.4,0,0,1,.24-.36,1.5,1.5,0,0,0,.48.28,2.3,2.3,0,0,0,.28.16,2.449,2.449,0,0,0,.48.2,2.722,2.722,0,0,0,.84.16h.32a1.107,1.107,0,0,1-.32.04,3.558,3.558,0,0,1-.88-.04c-.16-.04-.32-.08-.52-.12a2.76,2.76,0,0,0-.32-.12l-.24-.12c-.04.04-.04.12-.08.2,0,.04,0,.04-.04.12s-.08.12-.08.2a6.85,6.85,0,0,1-.48.92A27.8,27.8,0,0,1,142.107,69a4.238,4.238,0,0,1-.4.48l-.24.24a1.622,1.622,0,0,1-.36.2,3.744,3.744,0,0,1-1.281.16,6.108,6.108,0,0,1-1.2-.12c-.2-.04-.4-.04-.6-.08-.16-.04-.48-.08-.4-.08h0a.874.874,0,0,1-.2.12,4.861,4.861,0,0,1-2.681.48,4.046,4.046,0,0,1-.68-.12,1.169,1.169,0,0,1-.36-.08.8.8,0,0,1-.32-.16,7.147,7.147,0,0,1-1.04-.8,16.2,16.2,0,0,1-2.481-3.6c-.2-.4-.4-.76-.56-1.121a2.449,2.449,0,0,1-.2-.48c-.04-.08-.08-.2-.12-.28a7.221,7.221,0,0,1-.76.2,7.774,7.774,0,0,1-.881.04A.372.372,0,0,1,127.1,64.12Z" transform="translate(-127.1 -63.4)"/></g><g transform="translate(7.73 24.778)"><path class="j" d="M117.6,72.265s.68.4,1.841,1c1.2.6,2.881,1.481,5,2.361a27.152,27.152,0,0,0,7.444,2.2,12.983,12.983,0,0,0,4.282-.4,23.338,23.338,0,0,0,4.242-1.521,39.018,39.018,0,0,0,7.644-4.562c1.121-.88,2.2-1.761,3.2-2.6a14.2,14.2,0,0,0,1.361-1.321,3.757,3.757,0,0,0,.48-.72.6.6,0,0,0-.08-.68,1.438,1.438,0,0,0-.4-.28c-.08-.04-.16-.04-.24-.08a1.241,1.241,0,0,0-.28-.08,9.182,9.182,0,0,0-1.121-.16c.28-.12.6-.2.84-.32.2-.08.44-.16.64-.24.32-.12.64-.28.92-.4a5.014,5.014,0,0,0,1.321-.84l.16-.16a.876.876,0,0,0,.12-.2,1.421,1.421,0,0,0,.08-.4.723.723,0,0,0-.16-.6.617.617,0,0,0-.28-.28.494.494,0,0,1-.12-.08.494.494,0,0,0,.12.08.924.924,0,0,1,.28.28.816.816,0,0,1,.16.64,1.421,1.421,0,0,1-.08.4.876.876,0,0,1-.12.2c-.04.08-.12.12-.16.2a5.039,5.039,0,0,1-1.321.88,10.022,10.022,0,0,1-.92.44c-.2.08-.44.2-.68.28.12,0,.28.04.4.04a.814.814,0,0,0,.2.04c.08.04.16.04.24.08a1.833,1.833,0,0,1,.52.32.913.913,0,0,1,.24.48.939.939,0,0,1-.08.48,3.856,3.856,0,0,1-.48.8,14.558,14.558,0,0,1-1.361,1.361c-1,.88-2.041,1.761-3.162,2.681a39.945,39.945,0,0,1-7.724,4.642,24.117,24.117,0,0,1-4.322,1.521,12.981,12.981,0,0,1-4.442.4,26.13,26.13,0,0,1-7.484-2.361c-2.081-.92-3.762-1.881-4.922-2.521C118.24,72.665,117.6,72.265,117.6,72.265Z" transform="translate(-117.6 -61.9)"/></g></g></g></g></g></svg>