<svg xmlns="http://www.w3.org/2000/svg" viewBox="0 0 27.72 24.2"><defs><style>.a{fill:rgba(0,0,0,0.5);stroke:#fff;stroke-width:0.2px;}</style></defs><g transform="translate(-627.795 -675.558)"><g transform="translate(627.898 675.658)"><path class="a" d="M26.372,38.8a16.688,16.688,0,0,0-2.936-3.612c-1.813-1.606-3.326-1.567-4.066-1.4a2.8,2.8,0,0,0-.848.339A7.733,7.733,0,0,0,13.757,32.7a7.733,7.733,0,0,0-4.765,1.428,2.8,2.8,0,0,0-.848-.339c-.74-.166-2.253-.205-4.066,1.4A16.691,16.691,0,0,0,1.142,38.8c-1.186,2-1.45,3.61-.785,4.8A3.635,3.635,0,0,0,3.394,45.51,12.554,12.554,0,0,0,3,48.739a7.783,7.783,0,0,0,1.134,4.286,6.882,6.882,0,0,0,2.831,2.444A15.868,15.868,0,0,0,13.757,56.7a15.868,15.868,0,0,0,6.793-1.226,6.883,6.883,0,0,0,2.831-2.444,7.784,7.784,0,0,0,1.134-4.286,12.554,12.554,0,0,0-.4-3.228A3.635,3.635,0,0,0,27.157,43.6C27.821,42.408,27.557,40.793,26.372,38.8ZM3.916,43.852a2.132,2.132,0,0,1-2.089-1.077c-.335-.6-.057-1.736.763-3.117A15.069,15.069,0,0,1,5.2,36.446a3.172,3.172,0,0,1,2.461-1.039,16.674,16.674,0,0,0-2.612,5.338c-.261.784-.512,1.453-.755,2.1C4.159,43.191,4.034,43.524,3.916,43.852Zm8.742,5.522a2.047,2.047,0,0,1-.664-1.119c0-.2.035-.217.163-.271a5.116,5.116,0,0,1,1.6-.172,5.116,5.116,0,0,1,1.6.172c.129.054.163.069.163.271a2.047,2.047,0,0,1-.664,1.119,2.069,2.069,0,0,1-1.1.659A2.069,2.069,0,0,1,12.658,49.373Zm7.152,4.583A12.837,12.837,0,0,1,14.6,55v-3.45a4.459,4.459,0,0,0,1.447-.984,3.635,3.635,0,0,0,1.157-2.31,1.872,1.872,0,0,0-1.194-1.823,5.791,5.791,0,0,0-2.252-.3,5.792,5.792,0,0,0-2.252.3,1.872,1.872,0,0,0-1.194,1.823,3.636,3.636,0,0,0,1.157,2.31,4.458,4.458,0,0,0,1.447.984V55A12.834,12.834,0,0,1,7.7,53.956a5.27,5.27,0,0,1-3.021-5.217,13.4,13.4,0,0,1,1.183-5.3c.237-.631.506-1.347.777-2.161,1.489-4.473,3.063-6.9,7.114-6.9s5.626,2.424,7.114,6.9c.271.814.54,1.53.777,2.161a13.4,13.4,0,0,1,1.183,5.3A5.27,5.27,0,0,1,19.811,53.956Zm5.876-11.182A2.132,2.132,0,0,1,23.6,43.852c-.118-.328-.243-.661-.373-1.007-.243-.647-.495-1.316-.755-2.1a16.674,16.674,0,0,0-2.612-5.338,3.172,3.172,0,0,1,2.461,1.039,15.064,15.064,0,0,1,2.605,3.212C25.744,41.039,26.022,42.175,25.687,42.774Z" transform="translate(0 -32.695)"/><path class="a" d="M184.392,199.256a1.12,1.12,0,1,0,1.106,1.119A1.113,1.113,0,0,0,184.392,199.256Z" transform="translate(-173.438 -190.305)"/><path class="a" d="M288.376,199.093a1.128,1.128,0,1,0,1.113,1.128A1.121,1.121,0,0,0,288.376,199.093Z" transform="translate(-271.825 -190.151)"/></g></g></svg>