<svg xmlns="http://www.w3.org/2000/svg" viewBox="0 0 24 24"><defs><style>.a{fill:#2fabb0;}</style></defs><g transform="translate(-558 -675.738)"><path class="a" d="M64.5,1058.4a12,12,0,1,0,12,12A12.035,12.035,0,0,0,64.5,1058.4Zm0,1.2a10.8,10.8,0,1,1-10.8,10.8A10.755,10.755,0,0,1,64.5,1059.6Zm-.6,1.2v2.4h1.2v-2.4Zm-5.4,4.2a.645.645,0,0,0-.6.6.368.368,0,0,0,.1.3l4.1,6.7.3.3,7.9,2.9a.6.6,0,0,0,.8-.4c.1-.2,0-.4,0-.5l-4-6.7-.3-.3-8-2.9Zm1.4,1.7,6.2,2.3,3,5-6.1-2.2Zm4.6,2.5a1.2,1.2,0,1,0,1.2,1.2A1.155,1.155,0,0,0,64.5,1069.2Zm-9.6.6v1.2h2.4v-1.2Zm16.8,0v1.2h2.4v-1.2Zm-7.8,7.8v2.4h1.2v-2.4Z" transform="translate(505.5 -382.662)"/></g></svg>