<svg xmlns="http://www.w3.org/2000/svg" viewBox="0 0 24.2 24.2"><defs><style>.a,.c{fill:rgba(0,0,0,0.5);}.b,.c{stroke:none;}</style></defs><g transform="translate(-486.057 -675.558)"><g class="a" transform="translate(486.157 675.657)"><path class="b" d="M23.958,3.068a.558.558,0,0,0-.516-.345H21.277V.559a.558.558,0,0,0-.953-.395L18.138,2.35a.558.558,0,0,0-.163.395V5.236L16.141,7.07a9.689,9.689,0,1,0,.789.789l1.834-1.834h2.491a.558.558,0,0,0,.395-.163l2.186-2.186A.558.558,0,0,0,23.958,3.068Zm-4.866-.092,1.07-1.07V3.05l-1.07,1.07Zm-.823,11.332a8.587,8.587,0,1,1-2.922-6.443L13.979,9.232a6.656,6.656,0,1,0,.789.789l1.367-1.367A8.54,8.54,0,0,1,18.268,14.308Zm-6.089,0A2.49,2.49,0,1,1,11.01,12.2L9.3,13.913a.558.558,0,1,0,.789.789L11.8,12.99A2.471,2.471,0,0,1,12.179,14.308Zm-.366-2.91a3.608,3.608,0,1,0,.789.789l1.374-1.374a5.538,5.538,0,1,1-.789-.789Zm9.211-6.489H19.881l1.07-1.07h1.144Z"/><path class="c" d="M 20.71939849853516 0.0005931854248046875 C 20.57411956787109 0.000591278076171875 20.43136024475098 0.05728530883789062 20.3245677947998 0.1640377044677734 L 18.13843727111816 2.35015869140625 C 18.03378677368164 2.454868316650391 17.97495651245117 2.596807479858398 17.97495651245117 2.744817733764648 L 17.97495651245117 5.236309051513672 L 16.14130783081055 7.069967269897461 C 14.36485767364502 5.483617782592773 12.0961275100708 4.615818023681641 9.692387580871582 4.615818023681641 C 7.101436614990234 4.615818023681641 4.666948318481445 5.62348747253418 2.837306976318359 7.453128814697266 C 1.007667541503906 9.282768249511719 -1.9073486328125e-06 11.71725845336914 -1.9073486328125e-06 14.30820846557617 C -1.9073486328125e-06 16.89914703369141 1.007667541503906 19.33364868164062 2.837306976318359 21.16328811645508 C 4.666948318481445 22.99292755126953 7.101436614990234 24.00058746337891 9.692387580871582 24.00058746337891 C 12.28332710266113 24.00058746337891 14.71782779693604 22.99292755126953 16.54746627807617 21.16328811645508 C 18.37709808349609 19.33364868164062 19.38476753234863 16.89914703369141 19.38476753234863 14.30820846557617 C 19.38476753234863 11.90446853637695 18.51691818237305 9.635738372802734 16.93056678771973 7.859338760375977 L 18.7642879486084 6.025629043579102 L 21.25570678710938 6.025629043579102 C 21.40372848510742 6.025629043579102 21.54571723937988 5.966798782348633 21.65037727355957 5.862148284912109 L 23.83655738830566 3.676027297973633 C 23.99617767333984 3.516397476196289 24.0439567565918 3.276338577270508 23.95755767822266 3.067768096923828 C 23.87115669250488 2.859237670898438 23.66765785217285 2.72321891784668 23.44188690185547 2.72321891784668 L 21.27736663818359 2.72321891784668 L 21.27736663818359 0.5586986541748047 C 21.27736663818359 0.3329277038574219 21.14139747619629 0.1294384002685547 20.93282699584961 0.04302787780761719 C 20.86376953125 0.01446914672851562 20.79127502441406 0.0005931854248046875 20.71939849853516 0.0005931854248046875 M 19.0911865234375 4.120027542114258 L 19.0911865234375 2.976058959960938 L 20.1610279083252 1.906158447265625 L 20.1610279083252 3.050178527832031 L 19.0911865234375 4.120027542114258 M 21.02452659606934 4.909347534179688 L 19.88056755065918 4.909347534179688 L 20.95040702819824 3.839508056640625 L 22.09436798095703 3.839508056640625 L 21.02452659606934 4.909347534179688 M 13.97934722900391 9.231918334960938 C 12.8210973739624 8.252267837524414 11.32466697692871 7.660528182983398 9.692437171936035 7.660528182983398 C 6.026906967163086 7.660528182983398 3.044767379760742 10.64267826080322 3.044767379760742 14.30820846557617 C 3.044767379760742 17.9737377166748 6.026906967163086 20.9558277130127 9.692437171936035 20.9558277130127 C 13.35796737670898 20.9558277130127 16.34011840820312 17.97367858886719 16.34011840820312 14.30820846557617 C 16.34011840820312 12.6759786605835 15.74842739105225 11.1795482635498 14.76872730255127 10.0212984085083 L 16.1353874206543 8.654638290405273 C 17.46247673034668 10.16512775421143 18.26848793029785 12.14418792724609 18.26848793029785 14.30820846557617 C 18.26848793029785 19.03704833984375 14.42128753662109 22.88430786132812 9.692387580871582 22.88430786132812 C 4.96348762512207 22.88430786132812 1.116277694702148 19.03704833984375 1.116277694702148 14.30820846557617 C 1.116277694702148 9.579358100891113 4.963537216186523 5.732097625732422 9.692387580871582 5.732097625732422 C 11.85640716552734 5.732097625732422 13.83545780181885 6.538108825683594 15.34600734710693 7.865257263183594 L 13.97934722900391 9.231918334960938 M 11.81309700012207 11.398118019104 C 11.21766757965088 10.96298789978027 10.48466777801514 10.70529842376709 9.692387580871582 10.70529842376709 C 7.705738067626953 10.70529842376709 6.0894775390625 12.32156848907471 6.0894775390625 14.30820846557617 C 6.0894775390625 16.29484939575195 7.705738067626953 17.91111755371094 9.692387580871582 17.91111755371094 C 11.67902755737305 17.91111755371094 13.29528713226318 16.29484939575195 13.29528713226318 14.30820846557617 C 13.29528713226318 13.51586818695068 13.03759765625 12.78291797637939 12.60246753692627 12.18749809265137 L 13.97649765014648 10.81346797943115 C 14.7556676864624 11.7668285369873 15.22371768951416 12.98384857177734 15.22371768951416 14.30826854705811 C 15.22371768951416 17.35827827453613 12.74239730834961 19.83959770202637 9.692327499389648 19.83959770202637 C 6.642257690429688 19.83959770202637 4.160938262939453 17.35821914672852 4.160938262939453 14.30826854705811 C 4.160938262939453 11.25830841064453 6.642316818237305 8.776867866516113 9.692327499389648 8.776867866516113 C 11.01673698425293 8.776867866516113 12.23376750946045 9.244977951049805 13.18712711334229 10.02408790588379 L 11.81309700012207 11.398118019104 M 9.692387580871582 14.86634826660156 C 9.835206985473633 14.86634826660156 9.978096961975098 14.81181812286377 10.0870475769043 14.70286846160889 L 11.79958724975586 12.99032783508301 C 12.03964710235596 13.37270832061768 12.1790075302124 13.8243579864502 12.1790075302124 14.30820846557617 C 12.1790075302124 15.6793384552002 11.06350708007812 16.79483795166016 9.692387580871582 16.79483795166016 C 8.321257591247559 16.79483795166016 7.205757141113281 15.67938804626465 7.205757141113281 14.30820846557617 C 7.205757141113281 12.93702793121338 8.321257591247559 11.82157802581787 9.692387580871582 11.82157802581787 C 10.17623710632324 11.82157802581787 10.62788772583008 11.96094799041748 11.01026725769043 12.20094776153564 L 9.297727584838867 13.91348838806152 C 9.079767227172852 14.13143825531006 9.079767227172852 14.48485851287842 9.297727584838867 14.70286846160889 C 9.40672779083252 14.81181812286377 9.549557685852051 14.86634826660156 9.692387580871582 14.86634826660156 M 20.71939659118652 -0.0994110107421875 C 20.80610656738281 -0.0994110107421875 20.89076805114746 -0.08258247375488281 20.97104644775391 -0.04938125610351562 C 21.21789741516113 0.05288887023925781 21.37736701965332 0.2915687561035156 21.37736701965332 0.5586986541748047 L 21.37736701965332 2.623218536376953 L 23.44188690185547 2.623218536376953 C 23.70900726318359 2.623218536376953 23.94768714904785 2.782688140869141 24.0499382019043 3.029487609863281 C 24.15217781066895 3.276288986206055 24.09617805480957 3.557817459106445 23.90726661682129 3.746738433837891 L 21.72108840942383 5.932857513427734 C 21.59676742553711 6.057168960571289 21.43148803710938 6.125627517700195 21.25570678710938 6.125627517700195 L 18.80570793151855 6.125627517700195 L 17.06778335571289 7.863544464111328 C 18.62716484069824 9.644099235534668 19.48476791381836 11.92884635925293 19.48476791381836 14.30820846557617 C 19.48476791381836 16.92581939697266 18.46672821044922 19.38543891906738 16.61817741394043 21.2339973449707 C 14.76962757110596 23.08254814147949 12.31000709533691 24.10058784484863 9.692387580871582 24.10058784484863 C 7.07476806640625 24.10058784484863 4.615146636962891 23.08254814147949 2.766597747802734 21.2339973449707 C 0.9180374145507812 19.38544845581055 -0.1000022888183594 16.92581939697266 -0.1000022888183594 14.30820846557617 C -0.1000022888183594 11.690598487854 0.9180374145507812 9.230968475341797 2.766597747802734 7.382417678833008 C 4.615146636962891 5.533857345581055 7.074777603149414 4.515817642211914 9.692387580871582 4.515817642211914 C 12.07176876068115 4.515817642211914 14.35653591156006 5.373401641845703 16.13710021972656 6.932754516601562 L 17.87495803833008 5.194889068603516 L 17.87495803833008 2.744817733764648 C 17.87495803833008 2.569097518920898 17.94340705871582 2.403839111328125 18.06770706176758 2.279468536376953 L 20.25385665893555 0.09332847595214844 C 20.37819671630859 -0.03097152709960938 20.54352760314941 -0.0994110107421875 20.71939659118652 -0.0994110107421875 Z M 20.06102752685547 3.008758544921875 L 20.06102752685547 2.147588729858398 L 19.19118690490723 3.017477035522461 L 19.19118690490723 3.878606796264648 L 20.06102752685547 3.008758544921875 Z M 21.85294723510742 3.939508438110352 L 20.9918270111084 3.939508438110352 L 20.12198638916016 4.809349060058594 L 20.98310661315918 4.809349060058594 L 21.85294723510742 3.939508438110352 Z M 15.19939804077148 7.870447158813477 C 13.66396999359131 6.555168151855469 11.71268749237061 5.832098007202148 9.692387580871582 5.832098007202148 C 5.018648147583008 5.832098007202148 1.216278076171875 9.634468078613281 1.216278076171875 14.30820846557617 C 1.216278076171875 18.98194885253906 5.018648147583008 22.7843074798584 9.692387580871582 22.7843074798584 C 14.36612701416016 22.7843074798584 18.16848754882812 18.98194885253906 18.16848754882812 14.30820846557617 C 18.16848754882812 12.28790855407715 17.44543838500977 10.33663749694824 16.13019752502441 8.801247596740723 L 14.9040412902832 10.02740383148193 C 15.895263671875 11.23233604431152 16.44011688232422 12.74880599975586 16.44011688232422 14.30820846557617 C 16.44011688232422 18.02885818481445 13.41311740875244 21.05582809448242 9.692437171936035 21.05582809448242 C 5.971757888793945 21.05582809448242 2.944766998291016 18.02885818481445 2.944766998291016 14.30820846557617 C 2.944766998291016 10.58752822875977 5.971757888793945 7.560527801513672 9.692437171936035 7.560527801513672 C 11.25177097320557 7.560527801513672 12.76824188232422 8.10538387298584 13.97323989868164 9.09660530090332 L 15.19939804077148 7.870447158813477 Z M 13.03742980957031 10.0323657989502 C 12.08538055419922 9.286466598510742 10.90192890167236 8.87686824798584 9.692327499389648 8.87686824798584 C 6.697446823120117 8.87686824798584 4.260936737060547 11.31338787078857 4.260936737060547 14.30826854705811 C 4.260936737060547 17.3031177520752 6.697446823120117 19.73959732055664 9.692327499389648 19.73959732055664 C 12.68720722198486 19.73959732055664 15.12371730804443 17.3031177520752 15.12371730804443 14.30826854705811 C 15.12371730804443 13.09859943389893 14.71412181854248 11.91514873504639 13.96822261810303 10.96316337585449 L 12.73304557800293 12.19834041595459 C 13.16662502288818 12.82070159912109 13.39528751373291 13.54826641082764 13.39528751373291 14.30820846557617 C 13.39528751373291 16.34999847412109 11.7341775894165 18.01111793518066 9.692387580871582 18.01111793518066 C 7.650596618652344 18.01111793518066 5.989477157592773 16.34999847412109 5.989477157592773 14.30820846557617 C 5.989477157592773 12.26641845703125 7.650596618652344 10.60529804229736 9.692387580871582 10.60529804229736 C 10.45232009887695 10.60529804229736 11.17988395690918 10.83396053314209 11.80225563049316 11.26753997802734 L 13.03742980957031 10.0323657989502 Z M 10.84842491149902 12.22137069702148 C 10.49519824981689 12.02488994598389 10.09811496734619 11.9215784072876 9.692387580871582 11.9215784072876 C 8.376397132873535 11.9215784072876 7.305757522583008 12.99221801757812 7.305757522583008 14.30820846557617 C 7.305757522583008 15.6241979598999 8.376397132873535 16.69483757019043 9.692387580871582 16.69483757019043 C 11.00837707519531 16.69483757019043 12.07900714874268 15.6241979598999 12.07900714874268 14.30820846557617 C 12.07900714874268 13.90240859985352 11.97570037841797 13.50537204742432 11.7791748046875 13.15216064453125 L 10.15775775909424 14.77357864379883 C 10.033447265625 14.89788818359375 9.86817741394043 14.96634864807129 9.692387580871582 14.96634864807129 C 9.516657829284668 14.96634864807129 9.351387023925781 14.89789867401123 9.22703742980957 14.77359867095947 C 8.970417022705078 14.51691818237305 8.970417022705078 14.09936809539795 9.227017402648926 13.84277820587158 L 10.84842491149902 12.22137069702148 Z"/></g></g></svg>