<svg xmlns="http://www.w3.org/2000/svg" viewBox="0 0 26.758 24.411"><defs><style>.a{fill:rgba(0,0,0,0.5);stroke:#fff;stroke-width:0.4px;}</style></defs><g transform="translate(-412.762 -675.447)"><path class="a" d="M25.88,20.245,13.61,13.274a.9.9,0,0,0-.885,0L.454,20.245A.9.9,0,0,0,.9,21.92H3.069V36.261a.9.9,0,0,0,.9.9H22.37a.9.9,0,0,0,.9-.9V21.92h2.172a.9.9,0,0,0,.442-1.674Zm-4.406.779V35.365H4.86V21.024a.9.9,0,0,0-.639-.859l8.947-5.083,8.947,5.083A.9.9,0,0,0,21.475,21.024Z" transform="translate(412.974 662.501)"/><path class="a" d="M70.6,102.842a4.1,4.1,0,0,0-4.08,4.106c0,1.686,1.178,3.542,3.5,5.517a25.7,25.7,0,0,0,3.313,2.375.894.894,0,0,0,.9,0,25.691,25.691,0,0,0,3.313-2.375c2.322-1.975,3.5-3.832,3.5-5.517a4.073,4.073,0,0,0-7.264-2.564A4.064,4.064,0,0,0,70.6,102.842Zm3.184,5a.9.9,0,0,0,.9-.9,2.289,2.289,0,1,1,4.578,0c0,1.964-3.187,4.638-5.473,6.07-2.286-1.432-5.474-4.106-5.474-6.07a2.29,2.29,0,1,1,4.579,0A.9.9,0,0,0,73.787,107.845Z" transform="translate(352.354 580.762)"/></g></svg>