<svg xmlns="http://www.w3.org/2000/svg" viewBox="0 0 133.803 15.977"><defs><style>.a{fill:#1c2d2d;}.b{fill:#fff;}</style></defs><g transform="translate(-16 -44)"><g transform="translate(16 44)"><path class="a" d="M7.406,11.4c0-1.5-1.331-1.914-2.912-2.33C2.163,8.4,0,7.489,0,4.577,0,1.747,2.163,0,5.409,0A10.9,10.9,0,0,1,9.736.915V4.41l-2.33.166V3.245c0-.416-.083-.666-.5-.749a4.863,4.863,0,0,0-1.5-.166C4.077,2.33,3,2.912,3,4.327s1.331,1.831,3,2.33c2.08.666,4.327,1.664,4.327,4.577,0,3.079-2.413,4.743-5.575,4.743a11.343,11.343,0,0,1-4.66-.915V11.4l2.33-.166v1.415c0,.416.083.666.5.749a5,5,0,0,0,1.664.25C6.158,13.647,7.406,13.147,7.406,11.4Z"/><path class="a" d="M17.059,2.38l-1.5-.166V.3h5.325L25.63,13.7h0l1.331.083v2H20.97V13.863l.915-.083c.5-.083.749-.166.582-.666L21.885,11.7H16.477l-.666,2.08,1.415.083v2H11.9V13.947l.749-.083c.416-.083.5-.25.666-.666Zm0,7.156h4.327l-2.08-6.574h-.083Z" transform="translate(-1.998 -0.05)"/><path class="a" d="M33.755,12.449h.083L37.084,2.38,35.669,2.3V.3h5.325V2.214l-.749.083a.884.884,0,0,0-.749.666L35.17,15.777h-3L27.431,2.38,26.1,2.3V.3h5.991V2.214l-.749.083c-.5.083-.832.25-.666.832Z" transform="translate(-4.382 -0.05)"/><path class="a" d="M43.7,15.777V13.863l.749-.083c.416-.083.666-.166.666-.666V2.3L43.95,2.214,43.783.3H54.434V4.211l-2.33.166v-1c0-.416-.083-.749-.666-.749H48.027V6.624h5.325v2.33H48.027v4.41h3.744c.582,0,.666-.25.666-.749V11.45l2.33.166v4.161H43.7Z" transform="translate(-7.337 -0.05)"/></g><g transform="translate(63.43 44.416)"><path class="b" d="M63.574.5c2.58,0,4.993.749,4.993,3.828a3.732,3.732,0,0,1-2.08,3.245A3.542,3.542,0,0,1,69.4,11.234c0,3-2.08,4.577-5.908,4.577H57V13.98l.749-.083c.416-.083.666-.166.666-.666V2.5l-1.331-.083V.5ZM61.161,6.741h1.664c2,0,2.746-.915,2.746-2.163,0-1.664-1.165-2-2.663-2H61.161Zm0,6.823h2.163c2.247,0,3-1,3-2.413,0-1.581-1.082-2.33-2.912-2.33H61.161Z" transform="translate(-57 -0.5)"/><path class="b" d="M75.544,2.5l-1.415-.166V.5h5.242l4.66,13.23h0l1.331.083v1.914H79.455V13.9l.915-.083c.5-.083.749-.166.582-.666l-.582-1.415H74.961l-.666,2-.666,2H71.3s.666-2.163.832-2.58Zm0,7.073h4.244L77.707,3h0Z" transform="translate(-59.401 -0.5)"/><path class="b" d="M87.9,13.9l.749-.083c.416-.083.666-.166.666-.666V2.5l-1.331-.083V.5h6.241c3.412,0,5.492,1.082,5.492,4.244A4.25,4.25,0,0,1,96.97,8.821,2.255,2.255,0,0,1,98.3,10.236l1.664,3.578,1.331.083v1.914H95.639V13.98L96.3,13.9c.5-.083.666-.25.416-.749l-1.082-2.33c-.333-.749-.666-1.082-1.415-1.082h-2.08V13.73l1.5.083v1.914H87.9V13.9Zm6.241-6.324c1.914,0,2.829-.915,2.829-2.5,0-2.08-1.165-2.33-3.162-2.33H92.144V7.573Z" transform="translate(-62.188 -0.5)"/><path class="b" d="M105.231,2.5,103.9,2.414V.5h5.492V2.331l-.749.083c-.416.083-.666.166-.666.749V8.239l4.66-5.742-1.248-.083V.5H116.8l-.083,1.914h-.666a1.612,1.612,0,0,0-.915.666l-3.245,3.994,4.077,6.657,1.248.083v1.914h-5.908V13.9l.749-.083c.416-.083.582-.25.333-.749l-2.247-3.911-2,2.413V13.73l1.331.083v1.914h-5.492V13.9l.749-.083c.416-.083.666-.166.666-.749V2.5Z" transform="translate(-64.874 -0.5)"/><path class="b" d="M119.55,15.728V13.9l.749-.083c.416-.083.666-.166.666-.666V2.5L119.3,2.414V.5h5.908V2.331l-.749.083c-.416.083-.666.166-.666.749V13.4h3.828c.5,0,.5-.333.5-.749V11.068l2.33.166v4.577h-10.9Z" transform="translate(-67.46 -0.5)"/><path class="b" d="M132.6,15.728V13.9l.749-.083c.416-.083.666-.166.666-.666V2.5l-1.331-.083V.5h10.568V4.328l-2.33.166v-1c0-.416-.083-.749-.666-.749h-3.412V6.741h5.325v2.33h-5.325V13.4h3.661c.582,0,.666-.25.666-.749V11.484l2.33.166v4.077H132.6Z" transform="translate(-69.693 -0.5)"/><path class="b" d="M150.442,9.9,146.531,2.5,145.2,2.414V.5h5.825V2.331l-.666.083c-.5.083-.666.416-.416.915l1.914,3.994h.083l2.5-4.743L153.271,2.5V.5h4.909V2.331l-.666.083a.994.994,0,0,0-.749.666L153.188,9.9V13.73l1.831.083v1.914h-6.49V13.9l1.248-.083c.416,0,.666-.166.666-.666Z" transform="translate(-71.808 -0.5)"/></g></g></svg>